<?xml version="1.0" encoding="utf-8"?>
<!-- Generator: Adobe Illustrator 22.0.1, SVG Export Plug-In . SVG Version: 6.00 Build 0)  -->
<svg version="1.1" id="Layer_1" xmlns="http://www.w3.org/2000/svg" xmlns:xlink="http://www.w3.org/1999/xlink" x="0px" y="0px"
	 viewBox="0 0 120 120" style="enable-background:new 0 0 120 120;" xml:space="preserve">
<style type="text/css">
	.st0{fill:#B2985E;}
	.st1{fill:none;}
</style>
<g id="ic-corporate" transform="translate(247 1091)">
	<g>
		<path class="st0" d="M-136.4-1013.4c0-0.1,0-0.2,0-0.2l-2.3-20.2c-0.6-4.9-4.2-8.5-8.6-8.8l-1.6-3.3h8.5c1.1,0,2-0.9,2-2
			s-0.9-2-2-2h-9.6c-0.3,0-0.5,0.1-0.7,0.1l-4.8-10c-0.3-0.7-1-1.1-1.8-1.1h-60.8c-0.8,0-1.5,0.4-1.8,1.1l-4.8,10
			c-0.2-0.1-0.5-0.1-0.7-0.1h-9.6c-1.1,0-2,0.9-2,2s0.9,2,2,2h8.5l-1.6,3.3c-4.4,0.3-7.7,3.7-8.5,8.8l-2.4,20.2c0,0.1,0,0.2,0,0.2
			c0,2.1,0.8,4.1,2,5.6l0,9.4c0,1.9,1.4,3.4,3.3,3.4c0,0,0.1,0,0.1,0l20.1,0c0,0,0.1,0,0.1,0c1.8,0,3.3-1.5,3.4-3.3c0,0,0-0.1,0-0.1
			v-5.4l22.3,0.7c0,0,0,0,0.1,0s0,0,0.1,0l22.4-0.7l0,5.2c0,1.9,1.4,3.4,3.2,3.4c0,0,0.1,0,0.2,0l20.1,0c0,0,0.1,0,0.1,0
			c0.9,0,1.7-0.3,2.3-0.9c0.7-0.6,1-1.5,1-2.4c0,0,0-0.1,0-0.1v-9.5C-137.1-1009.4-136.4-1011.3-136.4-1013.4z M-216.8-1057h58.3
			l6.8,14.3h-71.9L-216.8-1057z M-214.1-998.9l-18.9,0v-6c1,0.3,2,0.6,3,0.6l15.9,0.5L-214.1-998.9z M-187.7-1007l-42.2-1.3
			c-2.8,0-5-2.2-5.1-5l2.4-20c0.3-2.4,1.4-4,2.9-4.8c0.2,0.5,0.5,1,1.1,1.3c0.3,0.1,0.6,0.2,0.9,0.2c0.7,0,1.5-0.4,1.8-1.1l0.4-0.9
			h75.8l0.4,0.9c0.5,1,1.7,1.4,2.7,0.9c0.5-0.3,0.9-0.7,1.1-1.3c1.7,0.9,2.7,2.9,3,4.8l2.3,20.1c-0.1,2.8-2.3,5-5.2,5l-17.3,0.5
			c-0.1,0-0.2,0-0.3,0c-0.2,0-0.3,0-0.5,0.1L-187.7-1007z M-161.2-999v-4.8l15.7-0.5c1.1,0,2.2-0.2,3.2-0.6l0,5.9L-161.2-999z"/>
		<path class="st0" d="M-145.9-1018.3c1.1-0.1,1.9-0.9,1.9-2v-11.3c0-0.6-0.2-1.1-0.6-1.5c-0.4-0.4-0.9-0.6-1.5-0.5l-41.6,2.4
			l-41.5-2.4c-0.6,0-1.1,0.2-1.5,0.5c-0.4,0.4-0.6,0.9-0.6,1.5v11.3c0,1.1,0.8,1.9,1.9,2l41.6,2.3c0,0,0.1,0,0.1,0s0.1,0,0.1,0
			L-145.9-1018.3z M-148-1022.2l-7.4,0.4v-7.3l7.4-0.4V-1022.2z M-227.3-1029.5l7.3,0.4v7.3l-7.3-0.4V-1029.5z M-216-1021.6v-7.3
			l28.2,1.6c0.1,0,0.2,0,0.2,0l28.2-1.6v7.3l-28.3,1.6L-216-1021.6z"/>
	</g>
	<rect id="Rectangle_65" x="-247" y="-1091" class="st1" width="120" height="120"/>
</g>
</svg>
