<?xml version="1.0" encoding="utf-8"?>
<!-- Generator: Adobe Illustrator 22.0.1, SVG Export Plug-In . SVG Version: 6.00 Build 0)  -->
<svg version="1.1" id="Layer_1" xmlns="http://www.w3.org/2000/svg" xmlns:xlink="http://www.w3.org/1999/xlink" x="0px" y="0px"
	 viewBox="0 0 123.8 120" style="enable-background:new 0 0 123.8 120;" xml:space="preserve">
<style type="text/css">
	.st0{fill:#B2985E;}
	.st1{fill:none;}
</style>
<g id="ic-abroad-travel" transform="translate(2079 4714)">
	<path class="st0" d="M-2049.4-4640.1c-1.1,0-2-0.9-2-2c0-0.4,0-0.9,0.1-1.6c0.1-2.2,0.4-5.9-0.4-9.9c-0.2-1.1,0.5-2.1,1.6-2.4
		c1.1-0.2,2.1,0.5,2.4,1.6c0.9,4.5,0.7,8.5,0.5,10.9c0,0.6-0.1,1-0.1,1.4C-2047.4-4641-2048.3-4640.1-2049.4-4640.1z"/>
	<path class="st0" d="M-2057.6-4669.1h-0.3c-1.1,0-2-0.9-2-2s0.9-2,2-2h0.3c1.1,0,2,0.9,2,2S-2056.5-4669.1-2057.6-4669.1z"/>
	<path class="st0" d="M-2031.2-4658c-0.7,0-1.3-0.3-1.7-0.9c-0.1-0.1-0.2-0.2-0.4-0.4c-4.1-4.7-9.6-7.9-15.7-9.2
		c-2.8-0.7-5.7-0.8-8.5-0.6c-1.1,0.1-2.1-0.7-2.2-1.8c-0.1-1.1,0.7-2.1,1.8-2.2c3.3-0.3,6.5-0.1,9.8,0.6c7,1.5,13.2,5.2,18,10.6
		c0.1,0.1,0.1,0.1,0.1,0.2c0.2,0.2,0.4,0.4,0.5,0.7c0.5,1,0.1,2.2-0.9,2.7C-2030.6-4658.1-2030.9-4658-2031.2-4658z M-2033-4659.1
		C-2033-4659.1-2033-4659.1-2033-4659.1C-2033-4659.1-2033-4659.1-2033-4659.1z M-2029.8-4661.4
		C-2029.8-4661.4-2029.8-4661.4-2029.8-4661.4C-2029.8-4661.4-2029.8-4661.4-2029.8-4661.4z"/>
	<path class="st0" d="M-2060.7-4640.1c-0.9,0-1.7-0.6-2-1.6c-0.8-3.6-2.9-7-5.8-9.4c-1.7-1.4-3.4-2.4-5.1-3.1c-0.1,0-0.1,0-0.2-0.1
		c-0.1,0-0.1-0.1-0.2-0.1c-0.2-0.1-0.4-0.1-0.5-0.2c-0.7-0.4-1.2-1.2-1.1-2s0.7-1.5,1.5-1.7c0.1,0,0.2-0.1,0.3-0.1
		c0.3-0.1,0.6-0.2,1.1-0.3c2.7-0.6,4.9-0.9,6.9-1l1.4,0c4,0,8,0.8,11.9,2.2c-1.2-4.6-3.5-8.8-6.6-12.3c-0.7-0.8-0.6-2.1,0.2-2.8
		c0.8-0.7,2.1-0.6,2.8,0.2c4.4,5.1,7.3,11.3,8.3,18.1c0.1,0.7-0.2,1.5-0.8,1.9c-0.6,0.4-1.4,0.5-2.1,0.1c-4.3-2.3-9-3.5-13.7-3.5
		h-1.3c-0.6,0-1.3,0.1-2,0.2c0.6,0.4,1.2,0.9,1.8,1.4c3.6,3,6.2,7.1,7.2,11.6c0.2,1.1-0.4,2.1-1.5,2.4
		C-2060.4-4640.1-2060.6-4640.1-2060.7-4640.1z"/>
	<path class="st0" d="M-1969.7-4640.1h-18.4c-1,0-1.8-0.7-2-1.7c-0.4-2.1-1.2-4.2-2.4-5.9c-0.9-1.1-1.9-2.1-3-2.9
		c-0.1-0.1-0.2-0.1-0.3-0.2c-0.8-0.4-1.3-1.4-1.1-2.3c0.2-0.9,1-1.6,1.9-1.6c0.1,0,0.3,0,0.4,0c0.2-0.1,0.4-0.1,0.6-0.1
		c2.2,0,3.9,0.2,5.5,0.6c0.1,0,0.1,0,0.2,0c0,0,0.1,0,0.1,0c0.2,0,0.5,0.1,0.8,0.2c1.9,0.5,3.6,1.1,5,1.8c3.6-2.7,7.7-4.6,12-5.7
		c0.3-0.1,0.5-0.1,0.6-0.1c0.2-0.1,0.5-0.1,0.7-0.2c2.3-0.5,4.7-0.7,7.1-0.6c0.5,0,1,0,1.7,0.1c0.8,0.2,1.5,0.8,1.6,1.7
		c0.1,0.8-0.3,1.6-1,2l-0.1,0c-0.1,0.1-0.3,0.2-0.4,0.3c-1.5,1.1-3,2.6-4.2,4.1c-1.8,2.5-2.9,5.4-3.4,8.6
		C-1967.9-4640.8-1968.7-4640.1-1969.7-4640.1z M-1986.5-4644.1h15.1c0.7-3.1,2-6.1,3.8-8.7c0.5-0.6,1-1.2,1.5-1.8
		c-0.7,0.1-1.4,0.2-2.1,0.4c-0.3,0.1-0.4,0.1-0.6,0.1c-0.2,0.1-0.5,0.1-0.7,0.2c-4.1,1-8.1,3-11.4,5.7c0,0,0,0,0,0l-0.6,0.5
		c-0.1,0.1-0.3,0.2-0.4,0.4c-0.9,0.7-2.1,0.5-2.8-0.4c-0.3-0.4-0.4-0.9-0.4-1.3c-1-0.4-2.1-0.8-3.3-1.1c-0.1,0-0.1,0-0.2-0.1l-0.1,0
		c-0.2,0-0.4-0.1-0.7-0.1c0.1,0.1,0.1,0.2,0.2,0.2C-1988-4648.2-1987-4646.2-1986.5-4644.1z M-1988.9-4650.2
		C-1988.9-4650.2-1988.9-4650.2-1988.9-4650.2C-1988.9-4650.2-1988.9-4650.2-1988.9-4650.2z M-1959.7-4654.8
		C-1959.7-4654.8-1959.7-4654.8-1959.7-4654.8C-1959.7-4654.8-1959.7-4654.8-1959.7-4654.8z M-1959.7-4654.8
		C-1959.7-4654.8-1959.7-4654.8-1959.7-4654.8C-1959.7-4654.8-1959.7-4654.8-1959.7-4654.8z"/>
	<path class="st0" d="M-1987-4649.7c-0.3,0-0.5-0.1-0.8-0.2c-1-0.4-1.5-1.6-1.1-2.6c2.2-5.2,5.1-10,8.6-14.4c0.7-0.9,2-1,2.8-0.3
		c0.9,0.7,1,2,0.3,2.8c-3.3,4-6,8.6-8,13.4C-1985.5-4650.2-1986.2-4649.7-1987-4649.7z"/>
	<path class="st0" d="M-1999-4640.1c-1.1,0-2-0.9-2-2c0-21.8-16.1-40.2-37.3-43.5c7.2,13.4,11,28.3,11,43.5c0,1.1-0.9,2-2,2
		s-2-0.9-2-2c0-15.8-4.3-31.3-12.4-44.9c-0.4-0.6-0.4-1.4,0-2.1c0.4-0.6,1.1-1,1.8-1c25.2,1.7,44.9,22.7,44.9,47.9
		C-1997-4641-1997.9-4640.1-1999-4640.1z"/>
	<path class="st0" d="M-1999-4640.1c-1.1,0-2-0.9-2-2c0-21.8-16.1-40.2-37.3-43.5c7.2,13.4,11,28.3,11,43.5c0,1.1-0.9,2-2,2
		s-2-0.9-2-2c0-15.8-4.3-31.3-12.4-44.9c-0.4-0.6-0.4-1.4,0-2.1c0.4-0.6,1.1-1,1.8-1c25.2,1.7,44.9,22.7,44.9,47.9
		C-1997-4641-1997.9-4640.1-1999-4640.1z"/>
	<path class="st0" d="M-1964.5-4632.4h-105.6c-1.6,0-2.9-1.2-2.9-2.8v-6c0-1.6,1.2-2.9,2.8-2.9h105.6c1.6,0,2.9,1.2,2.9,2.8v6
		C-1961.7-4633.7-1962.9-4632.4-1964.5-4632.4z M-2069-4636.4h103.3v-3.7H-2069V-4636.4z"/>
	<path class="st0" d="M-2003.8-4660.4c-0.7,0-1.4-0.4-1.8-1.1c-0.5-1-0.2-2.2,0.8-2.7c5.5-2.9,11.4-4.4,17.7-4.4
		c3.1,0,6.1,0.4,8.8,1.1c1.1,0.3,1.7,1.4,1.4,2.4c-0.3,1.1-1.4,1.7-2.4,1.4c-2.4-0.6-5-0.9-7.8-0.9c-5.6,0-11,1.3-15.9,4
		C-2003.2-4660.5-2003.5-4660.4-2003.8-4660.4z"/>
	<rect id="Rectangle_73" x="-2077" y="-4714" class="st1" width="120" height="120"/>
</g>
</svg>
