<?xml version="1.0" encoding="utf-8"?>
<!-- Generator: Adobe Illustrator 22.0.1, SVG Export Plug-In . SVG Version: 6.00 Build 0)  -->
<svg version="1.1" id="Layer_1" xmlns="http://www.w3.org/2000/svg" xmlns:xlink="http://www.w3.org/1999/xlink" x="0px" y="0px"
	 viewBox="0 0 120 120" style="enable-background:new 0 0 120 120;" xml:space="preserve">
<style type="text/css">
	.st0{fill:#B2985E;}
	.st1{fill:none;}
</style>
<g id="ic-visa" transform="translate(14 995)">
	<g>
		<path class="st0" d="M65.8-887.1c-0.3,0-0.6,0-0.9,0l-53.4-5.4c-1.1-0.1-2-1-2-2.2v-72.2c0-1.1,0.8-2.1,2-2.2l53.4-5.4
			c0.3,0,0.6-0.1,1-0.1c2.1,0,4.1,0.8,5.7,2.1c0.8,0.7,1.5,1.7,1.9,2.7h5v0c4.2,0.3,7.5,3.7,7.5,8v60.5c0,4.4-3.6,8-8,8h-4.2
			c-0.3,1.5-1.1,2.9-2.2,3.9c-1.6,1.4-3.6,2.2-5.7,2.2H65.8z M65.3-891.1c0.2,0,0.4,0,0.6,0c1.1,0,2.2-0.4,3.1-1.1
			c0.6-0.6,1-1.4,1-2.3v-72.6c0-0.9-0.4-1.7-1.1-2.3c-0.8-0.7-1.9-1.1-3-1.1c-0.2,0-0.4,0-0.6,0l-50.5,5.1c-0.7,0.1-1.3,0.7-1.3,1.4
			v66.3c0,0.7,0.5,1.3,1.3,1.4L65.3-891.1z M78-897.2c2.2,0,4-1.8,4-4v-60.5c0-2.2-1.8-4-4-4l-4,0v68.5H78z"/>
		<path class="st0" d="M59.6-937.6c-2.4-8.8-10.4-14.9-19.4-14.9c-11.1,0-20.1,9-20.1,20.1c0,11.1,9,20.1,20.1,20.1h0
			c1.3,0,2.5-0.1,3.8-0.4l0.2,0c0.4-0.1,0.7-0.1,1.1-0.2l0.2-0.1C56.2-915.7,62.5-926.8,59.6-937.6z M49.5-919.2
			c1.8-3.4,2.8-7.2,2.9-11.1h3.7C55.6-925.8,53.1-921.8,49.5-919.2z M42.2-916.8v-13.5h6.1C47.9-923,44.9-918.3,42.2-916.8z
			 M56.2-934.3h-3.8c-0.2-3.9-1.2-7.7-3-11.2C53.2-942.9,55.6-938.9,56.2-934.3z M48.4-934.3h-6.1v-13.5
			C45-946.2,47.9-941.3,48.4-934.3z M24.2-934.3c0.6-4.6,3-8.6,6.7-11.2c-1.8,3.5-2.8,7.3-3,11.2H24.2z M28-930.3
			c0.2,3.9,1.2,7.7,3,11.2c-3.7-2.6-6.2-6.6-6.7-11.2H28z M38.2-930.3v13.5c-2.8-1.6-5.7-6.5-6.1-13.5H38.2z M32-934.3
			c0.5-7,3.3-11.9,6.1-13.5v13.5H32z"/>
	</g>
	<rect id="Rectangle_67" x="-14" y="-995" class="st1" width="120" height="120"/>
</g>
</svg>
