<?xml version="1.0" encoding="utf-8"?>
<!-- Generator: Adobe Illustrator 22.0.1, SVG Export Plug-In . SVG Version: 6.00 Build 0)  -->
<svg version="1.1" id="Layer_1" xmlns="http://www.w3.org/2000/svg" xmlns:xlink="http://www.w3.org/1999/xlink" x="0px" y="0px"
	 viewBox="0 0 120 120" style="enable-background:new 0 0 120 120;" xml:space="preserve">
<style type="text/css">
	.st0{fill:none;}
	.st1{fill:none;stroke:#B1975D;stroke-width:4;stroke-miterlimit:10;}
	.st2{fill:#B1975D;}
</style>
<g id="ic-insurance" transform="translate(14 985)">
	<rect id="Rectangle_72" x="-14" y="-984.8" class="st0" width="120" height="120"/>
	<path class="st1" d="M33.8-914.8"/>
	<path class="st2" d="M88-949.8H65v-7.8c0-1.3-0.4-2.4-1.3-3.3c-0.8-0.9-2-1.4-3.2-1.4h-0.2H32h-0.2c-2.5,0-4.6,2-4.7,4.5v0.2v7.7
		H4.6c-7.4,0-10.1,6-10.1,10.1v45.9c0,7.4,6.1,10.1,10.2,10.1l83.3,0.1c7.2,0,9.8-5.9,9.8-9.8v-46.6C97.7-947.2,91.9-949.8,88-949.8
		z M31.5-957.9h29.2v7.9H31.5V-957.9z M0.2-943.8c1-1.1,2.3-1.7,3.8-1.8c0.1,0,0.2,0,0.3-0.1c0.2,0,0.3,0,0.4,0H88
		c0.1,0,0.2,0,0.3,0c2.7,0,4.9,2.1,5.1,4.8c0,0.3,0,0.5,0,0.7v12.5c-1.2,6.2-6.6,10.9-13.1,10.9H59c-0.5-2.3-2.5-4-4.9-4H37.9
		c-2.4,0-4.4,1.7-4.9,4H12.3c-7.4,0-13.4-6-13.4-13.4v-2.1h-0.1v-7.6C-1.3-941.3-0.8-942.7,0.2-943.8z M55.1-915.8v1.7
		c0,0.6-0.4,1-1,1H37.9c-0.6,0-1-0.4-1-1v-1.7c0-0.6,0.4-1,1-1h16.1C54.6-916.8,55.1-916.3,55.1-915.8z M88.5-888.2
		c-0.1,0-0.3,0-0.3,0s-0.1,0-0.2,0H4.6c-0.6,0-5.8-0.2-5.8-5.7v-25.3c3.2,3.9,8,6.4,13.5,6.4h20.9c0.6,2.1,2.5,3.7,4.8,3.7h16.1
		c2.3,0,4.2-1.6,4.8-3.7h21.4c5.2,0,9.9-2.3,13.1-6v25.3C93.5-890.8,91.3-888.3,88.5-888.2z"/>
</g>
</svg>
