<?xml version="1.0" encoding="utf-8"?>
<!-- Generator: Adobe Illustrator 22.0.1, SVG Export Plug-In . SVG Version: 6.00 Build 0)  -->
<svg version="1.1" id="Layer_1" xmlns="http://www.w3.org/2000/svg" xmlns:xlink="http://www.w3.org/1999/xlink" x="0px" y="0px"
	 viewBox="0 0 120 120" style="enable-background:new 0 0 120 120;" xml:space="preserve">
<style type="text/css">
	.st0{fill:#B2985E;}
	.st1{fill:none;}
</style>
<g id="ic-vip-travel" transform="translate(-267 1091)">
	<g>
		<path class="st0" d="M327-1065.6c-1.1,0-2-0.9-2-2v-5.3c0-1.1,0.9-2,2-2s2,0.9,2,2v5.3C329-1066.5,328.1-1065.6,327-1065.6z"/>
		<path class="st0" d="M344.9-1006.9c-1.1,0-2-0.9-2-2v-21.4h-31.8v21.4c0,1.1-0.9,2-2,2s-2-0.9-2-2v-23.4c0-1.1,0.9-2,2-2h35.8
			c1.1,0,2,0.9,2,2v23.4C346.9-1007.8,346-1006.9,344.9-1006.9z"/>
		<path class="st0" d="M315-1013.3c-1.1,0-2-0.9-2-2v-8.5c0-1.1,0.9-2,2-2s2,0.9,2,2v8.5C317-1014.2,316.1-1013.3,315-1013.3z"/>
		<path class="st0" d="M287.8-1015.8c-1.1,0-2-0.9-2-2v-2.8c0-1.1,0.9-2,2-2s2,0.9,2,2v2.8C289.8-1016.7,288.9-1015.8,287.8-1015.8z
			"/>
		<path class="st0" d="M294.5-1015.8c-1.1,0-2-0.9-2-2v-2.8c0-1.1,0.9-2,2-2s2,0.9,2,2v2.8C296.5-1016.7,295.6-1015.8,294.5-1015.8z
			"/>
		<path class="st0" d="M281.2-1015.8c-1.1,0-2-0.9-2-2v-2.8c0-1.1,0.9-2,2-2s2,0.9,2,2v2.8C283.2-1016.7,282.3-1015.8,281.2-1015.8z
			"/>
		<path class="st0" d="M301.1-1015.8c-1.1,0-2-0.9-2-2v-2.8c0-1.1,0.9-2,2-2s2,0.9,2,2v2.8C303.1-1016.7,302.2-1015.8,301.1-1015.8z
			"/>
		<path class="st0" d="M323.1-1013.3c-1.1,0-2-0.9-2-2v-8.5c0-1.1,0.9-2,2-2s2,0.9,2,2v8.5C325.1-1014.2,324.2-1013.3,323.1-1013.3z
			"/>
		<path class="st0" d="M331.3-1013.3c-1.1,0-2-0.9-2-2v-8.5c0-1.1,0.9-2,2-2s2,0.9,2,2v8.5C333.3-1014.2,332.4-1013.3,331.3-1013.3z
			"/>
		<path class="st0" d="M339.4-1013.3c-1.1,0-2-0.9-2-2v-8.5c0-1.1,0.9-2,2-2s2,0.9,2,2v8.5C341.4-1014.2,340.5-1013.3,339.4-1013.3z
			"/>
		<path class="st0" d="M304.9-1001.2c-0.4,0-0.8-0.1-1.2-0.4c-0.9-0.7-1.1-1.9-0.4-2.8l4.2-5.7c0.7-0.9,1.9-1.1,2.8-0.4
			c0.9,0.7,1.1,1.9,0.4,2.8l-4.2,5.7C306.1-1001.4,305.5-1001.2,304.9-1001.2z"/>
		<path class="st0" d="M349.1-1001.2c-0.6,0-1.2-0.3-1.6-0.8l-4.2-5.7c-0.7-0.9-0.5-2.1,0.4-2.8c0.9-0.7,2.1-0.5,2.8,0.4l4.2,5.7
			c0.7,0.9,0.5,2.1-0.4,2.8C349.9-1001.3,349.5-1001.2,349.1-1001.2z"/>
		<path class="st0" d="M339.4-1006.9H315c-1.1,0-2-0.9-2-2s0.9-2,2-2h24.4c1.1,0,2,0.9,2,2S340.5-1006.9,339.4-1006.9z"/>
		<path class="st0" d="M340.8-1030.3h-27.5c-1.1,0-2-0.9-2-2v-10.8c0-1,0.8-1.9,1.7-2c0-8.3,6-17.5,13.9-17.5
			c6.6,0,13.9,7.2,13.9,17.5c1,0.1,1.8,0.9,1.8,2v10.8C342.8-1031.2,341.9-1030.3,340.8-1030.3z M315.4-1034.3h23.5v-6.9
			c-1-0.1-1.8-0.9-1.8-2v-1.9c0-7-4.8-13.5-9.9-13.5c-4.6,0-9.9,5.9-9.9,13.5v1.9c0,1-0.8,1.9-1.7,2V-1034.3z"/>
		<path class="st0" d="M304.9-1001.2h-31.1c-1.1,0-2-0.9-2-2v-24.3c0-1.1,0.9-2,2-2h35.3c1.1,0,2,0.9,2,2s-0.9,2-2,2h-33.3v20.3
			h29.1c1.1,0,2,0.9,2,2S306-1001.2,304.9-1001.2z"/>
		<path class="st0" d="M366.2-1015.8c-1.1,0-2-0.9-2-2v-2.8c0-1.1,0.9-2,2-2s2,0.9,2,2v2.8C368.2-1016.7,367.3-1015.8,366.2-1015.8z
			"/>
		<path class="st0" d="M359.5-1015.8c-1.1,0-2-0.9-2-2v-2.8c0-1.1,0.9-2,2-2s2,0.9,2,2v2.8C361.5-1016.7,360.6-1015.8,359.5-1015.8z
			"/>
		<path class="st0" d="M372.8-1015.8c-1.1,0-2-0.9-2-2v-2.8c0-1.1,0.9-2,2-2s2,0.9,2,2v2.8C374.8-1016.7,373.9-1015.8,372.8-1015.8z
			"/>
		<path class="st0" d="M352.9-1015.8c-1.1,0-2-0.9-2-2v-2.8c0-1.1,0.9-2,2-2s2,0.9,2,2v2.8C354.9-1016.7,354-1015.8,352.9-1015.8z"
			/>
		<path class="st0" d="M380.2-1001.2h-31.1c-1.1,0-2-0.9-2-2s0.9-2,2-2h29.1v-20.3h-33.3c-1.1,0-2-0.9-2-2s0.9-2,2-2h35.3
			c1.1,0,2,0.9,2,2v24.3C382.2-1002.1,381.3-1001.2,380.2-1001.2z"/>
		<path class="st0" d="M349.1-1001.2h-44.2c-1.1,0-2-0.9-2-2s0.9-2,2-2h44.2c1.1,0,2,0.9,2,2S350.2-1001.2,349.1-1001.2z"/>
		<path class="st0" d="M318.7-1034.7c-1.1,0-2-0.9-2-2v-2.9c0-1.1,0.9-2,2-2s2,0.9,2,2v2.9C320.7-1035.6,319.8-1034.7,318.7-1034.7z
			"/>
		<path class="st0" d="M324-1034.7c-1.1,0-2-0.9-2-2v-2.9c0-1.1,0.9-2,2-2s2,0.9,2,2v2.9C326-1035.6,325.1-1034.7,324-1034.7z"/>
		<path class="st0" d="M329.4-1034.7c-1.1,0-2-0.9-2-2v-2.9c0-1.1,0.9-2,2-2s2,0.9,2,2v2.9C331.4-1035.6,330.5-1034.7,329.4-1034.7z
			"/>
		<path class="st0" d="M334.8-1034.7c-1.1,0-2-0.9-2-2v-2.9c0-1.1,0.9-2,2-2s2,0.9,2,2v2.9C336.8-1035.6,335.9-1034.7,334.8-1034.7z
			"/>
		<path class="st0" d="M329.5-1058.6h-5.1c-1.1,0-2-0.9-2-2v-5.1c0-1.1,0.9-2,2-2h5.1c1.1,0,2,0.9,2,2v5.1
			C331.5-1059.5,330.6-1058.6,329.5-1058.6z M326.4-1062.6h1.1v-1.1h-1.1V-1062.6z"/>
	</g>
	<rect id="Rectangle_63" x="267" y="-1091" class="st1" width="120" height="120"/>
</g>
</svg>
