<?xml version="1.0" encoding="utf-8"?>
<!-- Generator: Adobe Illustrator 22.0.1, SVG Export Plug-In . SVG Version: 6.00 Build 0)  -->
<svg version="1.1" id="Layer_1" xmlns="http://www.w3.org/2000/svg" xmlns:xlink="http://www.w3.org/1999/xlink" x="0px" y="0px"
	 viewBox="0 0 120 120" style="enable-background:new 0 0 120 120;" xml:space="preserve">
<style type="text/css">
	.st0{fill:#B2985E;}
	.st1{fill:none;}
</style>
<g id="ic-flights" transform="translate(-8 1092)">
	<g>
		<path class="st0" d="M68-1043.4c-3.6,0-6.5,2.9-6.5,6.5s2.9,6.5,6.5,6.5s6.5-2.9,6.5-6.5S71.5-1043.4,68-1043.4z M68-1034.4
			c-1.4,0-2.5-1.1-2.5-2.5s1.1-2.5,2.5-2.5c1.4,0,2.5,1.1,2.5,2.5S69.3-1034.4,68-1034.4z"/>
		<path class="st0" d="M125.7-1044.4H86.3c-0.2-4.1-1.6-7.9-4.2-11h5c1.1,0,2-0.9,2-2s-0.9-2-2-2h-9.5c-2.3-1.4-4.8-2.3-7.6-2.7
			v-9.9c0-1.1-0.9-2-2-2s-2,0.9-2,2v9.9c-2.7,0.3-5.3,1.3-7.5,2.7h-9.6c-1.1,0-2,0.9-2,2s0.9,2,2,2h5c-2.5,3-4,6.8-4.2,11H10.4
			c-1.1,0-2,0.9-2,2s0.9,2,2,2h21.4c-0.7,1.2-1.1,2.6-1.1,4.1c0,4.5,3.6,8.1,8.1,8.1s8.1-3.6,8.1-8.1c0-1.5-0.4-2.9-1.1-4.1h3.8v1
			c-0.2,10.3,8.1,18.8,18.4,18.9c5-0.1,9.6-2.1,13.1-5.7c3.5-3.6,5.3-8.3,5.3-13.3v-1h3.9c-0.7,1.2-1.1,2.6-1.1,4.1
			c0,4.5,3.6,8.1,8.1,8.1s8.1-3.6,8.1-8.1c0-1.5-0.4-2.9-1.1-4.1h21.4c1.1,0,2-0.9,2-2S126.8-1044.4,125.7-1044.4z M42.9-1036.3
			c0,2.3-1.8,4.1-4.1,4.1s-4.1-1.8-4.1-4.1c0-2.3,1.8-4.1,4.1-4.1S42.9-1038.6,42.9-1036.3z M82.3-1039.4
			C82.3-1039.4,82.3-1039.4,82.3-1039.4c0.1,3.9-1.4,7.6-4.1,10.5s-6.4,4.4-10.2,4.4c-8.1-0.1-14.6-6.8-14.4-14.9v-3.9
			c-0.1-7.9,6.1-14.5,13.9-14.8c0.2,0,0.3,0.1,0.5,0.1c0.2,0,0.3,0,0.5-0.1c3.7,0.2,7.2,1.7,9.8,4.4c2.7,2.8,4.2,6.5,4.1,10.5
			V-1039.4z M101.3-1036.3c0,2.3-1.8,4.1-4.1,4.1s-4.1-1.8-4.1-4.1c0-2.3,1.8-4.1,4.1-4.1S101.3-1038.6,101.3-1036.3z"/>
		<path class="st0" d="M76.2-1052.4H59.9c-1.1,0-2,0.9-2,2s0.9,2,2,2h16.3c1.1,0,2-0.9,2-2S77.3-1052.4,76.2-1052.4z"/>
		<path class="st0" d="M114.2-994.5c-3.6-2.8-8.1-4.4-12.6-4.3c-5.8,0-11.2,2.4-15.1,6.5c-2.3-1.3-4.8-2-7.5-2
			c-1.9,0-3.6,0.3-5.3,0.9c-3-7.4-10.6-12.5-19.5-12.5c-7.4,0-13.9,3.6-17.6,9.1c-1.9-0.7-3.9-1.1-5.9-1.2c-3.9,0-7.6,1.5-10.5,4.1
			c-0.8,0.8-0.9,2-0.1,2.8c0.8,0.8,2,0.9,2.8,0.1c2.1-2,4.9-3.1,7.7-3.1c1.4,0,2.7,0.2,4,0.7c-0.7,1.9-1.2,3.9-1.3,6
			c0,1,0.7,1.9,1.7,2.1c1,0.1,2-0.5,2.2-1.5l1.4-5.8c2.6-5.5,8.5-9.4,15.5-9.4c7.9,0,14.6,5,16.3,11.8l0.5,3.2
			c0.2,1.1,1.1,1.8,2.2,1.7c1.1-0.1,1.9-1,1.8-2.1c0-0.7-0.1-1.5-0.2-2.2c1.3-0.5,2.7-0.8,4.1-0.8c0,0,0.1,0,0.1,0
			c1.8,0,3.5,0.4,5,1.2c-0.2,0.3-0.4,0.6-0.6,0.9c-0.5,0.9-0.2,2.1,0.7,2.7c0.3,0.2,0.7,0.3,1.1,0.3c0.6,0,1.3-0.3,1.7-0.9l1.7-2.5
			c0,0,0,0,0,0c3.2-3.9,7.9-6.2,13.1-6.2c3.7-0.1,7.3,1.2,10.1,3.5c0.9,0.7,2.1,0.5,2.8-0.3S115.1-993.8,114.2-994.5z"/>
	</g>
	<rect id="Rectangle_64" x="8" y="-1092" class="st1" width="120" height="120"/>
</g>
</svg>
